<?xml version="1.0" encoding="UTF-8"?>
<svg width="793.7" height="793.7"  version="1.2" baseProfile="tiny-ps" viewBox="0 0 900 900" xmlns="http://www.w3.org/2000/svg">

 <title>Neotrust</title>
 <desc>Vous aider à transformer votre sécurité pour mieux gérer les risques.</desc>
 <g transform="translate(61.017 -102.97)">
  <defs>
   <!-- clipPath id="5cb1dc6b-92ae-405b-adef-e30642e4e10d">
    <path d="M 0,841.89 H 595.276 V 0 H 0 Z"/>
   </clipPath -->
  </defs>
  <path d="m282.65 437.64-14.844-124.82 72.872 62.413 17.542 86.165z" fill="#374bc3"/>
  <path d="m282.65 437.64-53.899 53.89 77.514 32.475 51.955-62.612z" fill="#647dff" />
  <path d="m358.22 461.39 40.304 177.32-63.245-76.246z" fill="#647dff" />
  <path d="m335.28 562.46-43.52-4.05 14.507-34.409 51.954-62.61z" fill="#235fe1" />
  <path d="m398.52 369.49-57.847 5.736 17.544 86.166z" fill="#647dff" />
  <path d="m514.4 437.64 14.845-124.82-72.873 62.413-17.542 86.165z" fill="#5fe6e6" />
  <path d="m514.4 437.64 53.899 53.89-77.514 32.475-51.955-62.612z" fill="#82f0fa" />
  <path d="m438.83 461.39-40.304 177.32 63.245-76.246z" fill="#82f0fa" />
  <path d="m461.77 562.46 43.52-4.05-14.506-34.409-51.956-62.61z" fill="#69b9fa" />
  <path d="m398.52 369.49 57.848 5.736-17.544 86.166z" fill="#82f0fa" />
  <path d="m398.52 369.49-40.303 91.902h80.607z" fill="#41afeb" />
  <path d="m398.52 461.39h-40.303l40.303 177.32 40.304-177.32z" fill="#374bc3" />
  <g transform="matrix(1.3333 0 0 -1.3333 0 1122.5)"  fill="#00143c">
   <path d="m295.31 303.78v8.882h-37.989v-8.882h14.149v-46.078h9.692v46.078zm54.579-23.041c0-0.086 9.287 4.437 9.287 14.546 0 9.306-8.078 17.377-20.207 17.377h-18.592v-54.96h9.692v20.207h10.515l11.323-20.207h10.503l-12.521 22.226zm-19.82 6.051v16.99h8.9c6.064 0 10.11-4.046 10.11-8.495s-3.96-8.495-10.11-8.495zm66.29 25.872h-9.691v-35.975c0-11.723 8.888-20.604 20.205-20.604 11.325 0 20.207 8.881 20.207 20.604v35.975h-9.691v-35.975c0-6.868-4.851-11.723-10.516-11.723-5.659 0-10.514 4.855-10.514 11.723zm76.4 1.62c-9.704 0-17.378-7.672-17.378-15.356 0-17.384 25.061-15.763 25.061-25.467 0-4.45-4.044-8.495-9.703-8.495-7.279 0-11.718 7.685-11.718 7.685l-7.273-5.255s6.059-11.311 19.802-11.311c10.913 0 18.991 8.077 18.991 16.566 0 17.382-25.062 15.768-25.062 25.472 0 4.039 3.235 7.274 8.089 7.274 4.856 0 8.895-5.661 8.895-5.661l7.267 5.262s-5.653 9.286-16.971 9.286m77.203-10.502v8.882h-37.988v-8.882h14.148v-46.078h9.691v46.078z" />
   <path d="m178.5 285.18c0-16.174 12.92-29.094 28.695-29.094 15.769 0 28.689 12.92 28.689 29.094s-12.92 29.105-28.689 29.105c-15.775 0-28.695-12.931-28.695-29.105m10.091 0c0 11.324 8.901 20.219 18.604 20.219 9.699 0 18.598-8.895 18.598-20.219 0-11.318-8.899-20.212-18.598-20.212-9.703 0-18.604 8.894-18.604 20.212m-136.61 29.105v-56.584h9.692v32.333h0.81l29.101-33.948h1.621v56.58h-9.693v-32.335h-0.81l-29.106 33.954zm71.145-1.619v-54.965h32.728v8.881h-23.042v14.566h15.762v8.881h-15.762v13.755h22.232v8.882z" />
  </g>
 </g>
</svg>
