<?xml version="1.0" encoding="UTF-8" standalone="no"?>
<svg
   data-bbox="69.312 312.81 663.965 468.271"
   viewBox="0 0 900 900"
   height="793.701"
   width="793.701"
   data-type="color"
   version="1.2"
   id="svg39"
   sodipodi:docname="neotrust.svg"
   inkscape:version="1.3.2 (091e20e, 2023-11-25)"
   xmlns:inkscape="http://www.inkscape.org/namespaces/inkscape"
   xmlns:sodipodi="http://sodipodi.sourceforge.net/DTD/sodipodi-0.dtd"
   xmlns="http://www.w3.org/2000/svg"
   xmlns:svg="http://www.w3.org/2000/svg">
  <defs
     id="defs43" />
  <sodipodi:namedview
     id="namedview41"
     pagecolor="#ffffff"
     bordercolor="#000000"
     borderopacity="0.25"
     inkscape:showpageshadow="2"
     inkscape:pageopacity="0.0"
     inkscape:pagecheckerboard="0"
     inkscape:deskcolor="#d1d1d1"
     inkscape:zoom="0.29734119"
     inkscape:cx="396.85049"
     inkscape:cy="396.85049"
     inkscape:window-width="1440"
     inkscape:window-height="449"
     inkscape:window-x="0"
     inkscape:window-y="25"
     inkscape:window-maximized="0"
     inkscape:current-layer="svg39" />
  <g
     id="g37"
     transform="translate(61.016949,-102.9661)">
    <defs
       id="defs5">
      <clipPath
         id="5cb1dc6b-92ae-405b-adef-e30642e4e10d"
         clipPathUnits="userSpaceOnUse">
        <path
           d="M 0,841.89 H 595.276 V 0 H 0 Z"
           id="path2" />
      </clipPath>
    </defs>
    <path
       d="m 282.649,437.635 -14.844,-124.825 72.872,62.413 17.542,86.165 z"
       fill="#374bc3"
       data-color="1"
       id="path7" />
    <path
       d="M 282.649,437.635 228.75,491.525 306.264,524 358.219,461.388 Z"
       fill="#647dff"
       data-color="2"
       id="path9" />
    <path
       d="m 358.218,461.388 40.304,177.316 -63.245,-76.246 z"
       fill="#647dff"
       data-color="2"
       id="path11" />
    <path
       d="m 335.276,562.459 -43.52,-4.05 14.507,-34.409 51.954,-62.61 z"
       fill="#235fe1"
       data-color="3"
       id="path13" />
    <path
       d="m 398.522,369.487 -57.847,5.736 17.544,86.166 z"
       fill="#647dff"
       data-color="2"
       id="path15" />
    <path
       d="M 514.395,437.635 529.24,312.81 456.367,375.223 438.825,461.388 Z"
       fill="#5fe6e6"
       data-color="4"
       id="path17" />
    <path
       d="m 514.395,437.635 53.899,53.89 L 490.78,524 438.825,461.388 Z"
       fill="#82f0fa"
       data-color="5"
       id="path19" />
    <path
       d="m 438.826,461.388 -40.304,177.316 63.245,-76.246 z"
       fill="#82f0fa"
       data-color="5"
       id="path21" />
    <path
       d="m 461.766,562.459 43.52,-4.05 L 490.78,524 438.824,461.39 Z"
       fill="#69b9fa"
       data-color="6"
       id="path23" />
    <path
       d="m 398.522,369.487 57.848,5.736 -17.544,86.166 z"
       fill="#82f0fa"
       data-color="5"
       id="path25" />
    <path
       d="m 398.522,369.487 -40.303,91.902 h 80.607 z"
       fill="#41afeb"
       data-color="7"
       id="path27" />
    <path
       d="m 398.522,461.388 h -40.303 l 40.303,177.316 40.304,-177.316 z"
       fill="#374bc3"
       data-color="1"
       id="path29" />
    <g
       clip-path="url(#5cb1dc6b-92ae-405b-adef-e30642e4e10d)"
       transform="matrix(1.33333,0,0,-1.33333,0,1122.52)"
       id="g35">
      <path
         d="m 295.307,303.777 v 8.882 h -37.989 v -8.882 h 14.149 v -46.078 h 9.692 v 46.078 z m 54.579,-23.041 c 0,-0.086 9.287,4.437 9.287,14.546 0,9.306 -8.078,17.377 -20.207,17.377 h -18.592 v -54.96 h 9.692 v 20.207 h 10.515 l 11.323,-20.207 h 10.503 l -12.521,22.226 z m -19.82,6.051 v 16.99 h 8.9 c 6.064,0 10.11,-4.046 10.11,-8.495 0,-4.449 -3.96,-8.495 -10.11,-8.495 z m 66.29,25.872 h -9.691 v -35.975 c 0,-11.723 8.888,-20.604 20.205,-20.604 11.325,0 20.207,8.881 20.207,20.604 v 35.975 h -9.691 v -35.975 c 0,-6.868 -4.851,-11.723 -10.516,-11.723 -5.659,0 -10.514,4.855 -10.514,11.723 z m 76.4,1.62 c -9.704,0 -17.378,-7.672 -17.378,-15.356 0,-17.384 25.061,-15.763 25.061,-25.467 0,-4.45 -4.044,-8.495 -9.703,-8.495 -7.279,0 -11.718,7.685 -11.718,7.685 l -7.273,-5.255 c 0,0 6.059,-11.311 19.802,-11.311 10.913,0 18.991,8.077 18.991,16.566 0,17.382 -25.062,15.768 -25.062,25.472 0,4.039 3.235,7.274 8.089,7.274 4.856,0 8.895,-5.661 8.895,-5.661 l 7.267,5.262 c 0,0 -5.653,9.286 -16.971,9.286 m 77.203,-10.502 v 8.882 h -37.988 v -8.882 h 14.148 v -46.078 h 9.691 v 46.078 z"
         fill="#00143c"
         data-color="8"
         id="path31" />
      <path
         d="m 178.5,285.175 c 0,-16.174 12.92,-29.094 28.695,-29.094 15.769,0 28.689,12.92 28.689,29.094 0,16.174 -12.92,29.105 -28.689,29.105 -15.775,0 -28.695,-12.931 -28.695,-29.105 m 10.091,0 c 0,11.324 8.901,20.219 18.604,20.219 9.699,0 18.598,-8.895 18.598,-20.219 0,-11.318 -8.899,-20.212 -18.598,-20.212 -9.703,0 -18.604,8.894 -18.604,20.212 M 51.984,314.28 v -56.584 h 9.692 v 32.333 h 0.81 l 29.101,-33.948 h 1.621 v 56.58 h -9.693 v -32.335 h -0.81 L 53.599,314.28 Z m 71.145,-1.619 v -54.965 h 32.728 v 8.881 h -23.042 v 14.566 h 15.762 v 8.881 h -15.762 v 13.755 h 22.232 v 8.882 z"
         fill="#00143c"
         data-color="8"
         id="path33" />
    </g>
  </g>
  <desc
     id="desc1">Vous aider à transformer votre sécurité pour mieux gérer les risques.</desc>
  <title
     id="title1">Neotrust</title>
</svg>
