<?xml version="1.0" encoding="UTF-8" standalone="no"?>
<svg xmlns:inkscape="http://www.inkscape.org/namespaces/inkscape" xmlns:sodipodi="http://sodipodi.sourceforge.net/DTD/sodipodi-0.dtd" xmlns="http://www.w3.org/2000/svg" xmlns:svg="http://www.w3.org/2000/svg" data-bbox="69.312 312.81 663.965 468.271" viewBox="0 0 1093.701 1093.701" height="793.701" width="793.701" data-type="color" version="1.2" id="svg39" sodipodi:docname="neotrust.svg" baseProfile="tiny-ps">
  <defs id="defs43"/>
  <sodipodi:namedview id="namedview41" pagecolor="#ffffff" bordercolor="#000000" borderopacity="0.25" inkscape:showpageshadow="2" inkscape:pageopacity="0.0" inkscape:pagecheckerboard="0" inkscape:deskcolor="#d1d1d1"/>
  <g id="g37">
    <defs id="defs5">
      <clipPath id="5cb1dc6b-92ae-405b-adef-e30642e4e10d" clipPathUnits="userSpaceOnUse">
        <path d="M0 841.89h595.276V0H0Z" id="path2"/>
      </clipPath>
    </defs>
    <path d="M282.649 437.635 267.805 312.81l72.872 62.413 17.542 86.165Z" fill="#374bc3" data-color="1" id="path7"/>
    <path d="m282.649 437.635-53.899 53.89L306.264 524l51.955-62.612z" fill="#647dff" data-color="2" id="path9"/>
    <path d="m358.218 461.388 40.304 177.316-63.245-76.246z" fill="#647dff" data-color="2" id="path11"/>
    <path d="m335.276 562.459-43.52-4.05L306.263 524l51.954-62.61z" fill="#235fe1" data-color="3" id="path13"/>
    <path d="m398.522 369.487-57.847 5.736 17.544 86.166z" fill="#647dff" data-color="2" id="path15"/>
    <path d="M514.395 437.635 529.24 312.81l-72.873 62.413-17.542 86.165Z" fill="#5fe6e6" data-color="4" id="path17"/>
    <path d="m514.395 437.635 53.899 53.89L490.78 524l-51.955-62.612z" fill="#82f0fa" data-color="5" id="path19"/>
    <path d="m438.826 461.388-40.304 177.316 63.245-76.246z" fill="#82f0fa" data-color="5" id="path21"/>
    <path d="m461.766 562.459 43.52-4.05L490.78 524l-51.956-62.61Z" fill="#69b9fa" data-color="6" id="path23"/>
    <path d="m398.522 369.487 57.848 5.736-17.544 86.166Z" fill="#82f0fa" data-color="5" id="path25"/>
    <path d="m398.522 369.487-40.303 91.902h80.607Z" fill="#41afeb" data-color="7" id="path27"/>
    <path d="M398.522 461.388h-40.303l40.303 177.316 40.304-177.316Z" fill="#374bc3" data-color="1" id="path29"/>
    <g clip-path="url(#5cb1dc6b-92ae-405b-adef-e30642e4e10d)" transform="matrix(1.33333 0 0 -1.33333 0 1122.52)" id="g35">
      <path d="M295.307 303.777v8.882h-37.989v-8.882h14.149v-46.078h9.692v46.078Zm54.579-23.041c0-.086 9.287 4.437 9.287 14.546 0 9.306-8.078 17.377-20.207 17.377h-18.592v-54.96h9.692v20.207h10.515l11.323-20.207h10.503l-12.521 22.226zm-19.82 6.051v16.99h8.9c6.064 0 10.11-4.046 10.11-8.495 0-4.449-3.96-8.495-10.11-8.495zm66.29 25.872h-9.691v-35.975c0-11.723 8.888-20.604 20.205-20.604 11.325 0 20.207 8.881 20.207 20.604v35.975h-9.691v-35.975c0-6.868-4.851-11.723-10.516-11.723-5.659 0-10.514 4.855-10.514 11.723zm76.4 1.62c-9.704 0-17.378-7.672-17.378-15.356 0-17.384 25.061-15.763 25.061-25.467 0-4.45-4.044-8.495-9.703-8.495-7.279 0-11.718 7.685-11.718 7.685l-7.273-5.255s6.059-11.311 19.802-11.311c10.913 0 18.991 8.077 18.991 16.566 0 17.382-25.062 15.768-25.062 25.472 0 4.039 3.235 7.274 8.089 7.274 4.856 0 8.895-5.661 8.895-5.661l7.267 5.262s-5.653 9.286-16.971 9.286m77.203-10.502v8.882h-37.988v-8.882h14.148v-46.078h9.691v46.078Z" fill="#00143c" data-color="8" id="path31"/>
      <path d="M178.5 285.175c0-16.174 12.92-29.094 28.695-29.094 15.769 0 28.689 12.92 28.689 29.094s-12.92 29.105-28.689 29.105c-15.775 0-28.695-12.931-28.695-29.105m10.091 0c0 11.324 8.901 20.219 18.604 20.219 9.699 0 18.598-8.895 18.598-20.219 0-11.318-8.899-20.212-18.598-20.212-9.703 0-18.604 8.894-18.604 20.212M51.984 314.28v-56.584h9.692v32.333h.81l29.101-33.948h1.621v56.58h-9.693v-32.335h-.81L53.599 314.28zm71.145-1.619v-54.965h32.728v8.881h-23.042v14.566h15.762v8.881h-15.762v13.755h22.232v8.882z" fill="#00143c" data-color="8" id="path33"/>
    </g>
  </g>
<desc>Vous aider à transformer votre sécurité pour mieux gérer les risques.</desc>
<title>Neotrust</title></svg>
