<?xml version="1.0" encoding="utf-8"?>
<!-- Generator: Adobe Illustrator 27.8.0, SVG Export Plug-In . SVG Version: 6.00 Build 0)  -->
<svg version="1.1" id="Layer_1" xmlns="http://www.w3.org/2000/svg" xmlns:xlink="http://www.w3.org/1999/xlink" x="0px" y="0px"
	 width="400px" height="400px" viewBox="0 0 400 400" style="enable-background:new 0 0 400 400;" xml:space="preserve">
<style type="text/css">
	.st0{fill:#DDB651;}
	.st1{fill:#FFFFFF;}
	.st2{fill:url(#SVGID_1_);}
	.st3{fill:url(#SVGID_00000159437029285286486040000009697468425122301069_);}
	.st4{fill:url(#SVGID_00000147217097246996349810000011149823367915437442_);}
</style>
<path class="st0" d="M96.33,226.34c1.595,1.882,4.318,3.727,8.052,3.727c5.99,0,7.507-3.313,7.507-5.685
	c0-4.066-3.773-5.157-7.624-6.212c-4.006-1.092-8.129-2.183-8.129-6.55c0-4.066,3.851-6.4,8.129-6.4
	c3.812,0,6.574,1.355,8.402,3.539l-0.972,0.866c-1.828-2.296-4.434-3.275-7.429-3.275c-3.773,0-6.768,2.184-6.768,5.27
	c0,3.388,3.501,4.329,7.196,5.346c4.162,1.167,8.557,2.447,8.557,7.416c0,2.824-1.867,6.814-8.868,6.814
	c-4.045,0-7.196-1.694-9.063-3.99L96.33,226.34z M127.379,205.221c7.507,0,12.33,5.722,12.33,12.988
	c0,7.266-4.824,12.988-12.33,12.988c-7.546,0-12.331-5.722-12.331-12.988S119.833,205.221,127.379,205.221z M127.379,206.35
	c-6.729,0-10.97,4.969-10.97,11.858c0,6.814,4.24,11.858,10.97,11.858c6.651,0,10.969-5.045,10.969-11.858
	C138.348,211.319,134.03,206.35,127.379,206.35z M164.979,230.745v-23.679l-10.113,23.679h-0.389l-10.114-23.679v23.679h-1.245
	v-25.11h1.984l9.569,22.475l9.569-22.475h1.983v25.11H164.979z M192.59,230.745v-23.679l-10.113,23.679h-0.389l-10.114-23.679
	v23.679h-1.245v-25.11h1.984l9.569,22.475l9.569-22.475h1.983v25.11H192.59z M198.34,230.745v-25.11h15.87v1.129h-14.625v10.503
	h14.353v1.129h-14.353v11.218h14.625v1.129L198.34,230.745L198.34,230.745z M224.667,230.745v-23.98h-8.752v-1.129h18.787v1.129
	h-8.791v23.98H224.667z M245.829,230.745v-25.11h7.702c8.052,0,12.914,5.873,12.914,12.574c0,6.777-4.862,12.536-12.914,12.536
	H245.829z M247.074,229.615h6.457c7.352,0,11.552-5.045,11.552-11.407c0-6.287-4.201-11.444-11.552-11.444h-6.457V229.615z
	 M269.71,230.745v-25.11h15.871v1.129h-14.626v10.503h14.353v1.129h-14.353v11.218h14.626v1.129L269.71,230.745L269.71,230.745z
	 M96.679,263.406v-25.11h1.245v23.98h13.031v1.129L96.679,263.406L96.679,263.406z M133.715,263.406l-2.878-6.739h-14.47
	l-2.878,6.739h-1.439l10.814-25.11h1.478l10.813,25.11H133.715z M123.602,239.689l-6.768,15.849h13.536L123.602,239.689z
	 M145.269,259.002c1.595,1.882,4.318,3.727,8.052,3.727c5.99,0,7.507-3.313,7.507-5.685c0-4.066-3.773-5.157-7.624-6.212
	c-4.006-1.092-8.129-2.184-8.129-6.551c0-4.066,3.851-6.4,8.129-6.4c3.812,0,6.574,1.355,8.402,3.539l-0.972,0.866
	c-1.828-2.296-4.434-3.276-7.429-3.276c-3.773,0-6.768,2.184-6.768,5.271c0,3.388,3.501,4.33,7.196,5.346
	c4.162,1.167,8.557,2.447,8.557,7.416c0,2.823-1.867,6.814-8.868,6.814c-4.045,0-7.196-1.694-9.063-3.991L145.269,259.002z
	 M165.166,263.406v-25.11h15.871v1.129h-14.626v10.503h14.353v1.129h-14.353v11.218h14.626v1.129L165.166,263.406L165.166,263.406z
	 M173.802,236.188h-1.167l6.224-5.421h1.751L173.802,236.188z M183.068,250.87c0-7.718,5.756-12.988,12.952-12.988
	c3.656,0,6.729,1.393,9.024,3.953l-0.972,0.828c-1.828-2.221-4.823-3.651-8.052-3.651c-6.496,0-11.591,4.782-11.591,11.859
	c0,7.002,5.095,11.858,11.591,11.858c3.229,0,6.224-1.431,8.052-3.651l1.011,0.79c-2.451,2.673-5.407,3.991-9.063,3.991
	C188.824,263.858,183.068,258.587,183.068,250.87z M207.213,238.296h1.245v15.586c0,5.572,2.956,8.847,8.402,8.847
	c5.446,0,8.402-3.275,8.402-8.847v-15.586h1.245v15.586c0,6.212-3.345,9.977-9.647,9.977c-6.301,0-9.647-3.802-9.647-9.977V238.296z
	 M246.299,263.406l-7.897-10.842h-6.224v10.842h-1.245v-25.11h8.947c4.201,0,7.663,2.522,7.663,7.115
	c0,4.593-3.462,7.153-7.663,7.153l8.013,10.842L246.299,263.406L246.299,263.406z M239.881,239.425h-7.702v12.009h7.702
	c3.812,0,6.301-2.56,6.301-6.023S243.693,239.425,239.881,239.425z M250.831,263.406v-25.11h1.245v25.11H250.831z M262.921,263.406
	v-23.98h-8.752v-1.129h18.787v1.129h-8.791v23.98H262.921z M275.117,263.406v-25.11h15.871v1.129h-14.626v10.503h14.353v1.129
	h-14.353v11.218h14.626v1.129L275.117,263.406L275.117,263.406z M283.752,236.188h-1.167l6.224-5.421h1.751L283.752,236.188z
	 M96.679,296.067v-25.11h1.245v25.11H96.679z M121.71,296.067l-17.504-23.153v23.153h-1.245v-25.11h1.245l17.504,22.927v-22.927
	h1.245v25.11H121.71z M128.083,296.067v-25.11h15.871v1.129h-14.626v10.503h14.353v1.129h-14.353v12.348L128.083,296.067
	L128.083,296.067z M158.498,270.543c7.507,0,12.33,5.722,12.33,12.988s-4.824,12.988-12.33,12.988
	c-7.546,0-12.331-5.722-12.331-12.988S150.952,270.543,158.498,270.543z M158.498,271.673c-6.729,0-10.97,4.969-10.97,11.858
	c0,6.814,4.24,11.858,10.97,11.858c6.651,0,10.969-5.045,10.969-11.858C169.467,276.642,165.149,271.673,158.498,271.673z
	 M190.224,296.067l-7.897-10.842h-6.224v10.842h-1.245v-25.11h8.947c4.201,0,7.663,2.522,7.663,7.115
	c0,4.593-3.462,7.153-7.663,7.153l8.013,10.842L190.224,296.067L190.224,296.067z M183.806,272.087h-7.702v12.009h7.702
	c3.812,0,6.301-2.56,6.301-6.023S187.618,272.087,183.806,272.087z M217.174,296.067v-23.68l-10.113,23.68h-0.389l-10.114-23.68
	v23.68h-1.245v-25.11h1.984l9.569,22.475l9.569-22.475h1.983v25.11H217.174z M242.591,296.067l-2.878-6.739h-14.47l-2.878,6.739
	h-1.439l10.814-25.11h1.478l10.813,25.11H242.591z M232.477,272.35l-6.768,15.849h13.536L232.477,272.35z M249.577,296.067v-23.981
	h-8.752v-1.129h18.787v1.129h-8.791v23.981H249.577z M262.395,296.067v-25.11h1.245v25.11H262.395z M288.453,293.206l2.957,2.861
	l-0.856,0.866l-3.034-2.937c-2.023,1.581-4.59,2.522-7.624,2.522c-7.546,0-12.331-5.722-12.331-12.988s4.784-12.988,12.331-12.988
	c7.507,0,12.33,5.722,12.33,12.988C292.226,287.409,290.865,290.834,288.453,293.206z M286.664,293.169l-4.318-4.179l0.895-0.866
	l4.318,4.217c2.101-2.146,3.306-5.233,3.306-8.809c0-6.889-4.318-11.858-10.969-11.858c-6.729,0-10.97,4.969-10.97,11.858
	c0,6.814,4.24,11.858,10.97,11.858C282.58,295.39,284.874,294.561,286.664,293.169z M296.175,270.958h1.245v15.586
	c0,5.571,2.956,8.846,8.402,8.846c5.445,0,8.402-3.275,8.402-8.846v-15.586h1.245v15.586c0,6.211-3.345,9.976-9.647,9.976
	c-6.302,0-9.647-3.802-9.647-9.976L296.175,270.958L296.175,270.958z M320.52,296.067v-25.11h15.871v1.129h-14.626v10.503h14.353
	v1.129h-14.353v11.218h14.626v1.129H320.52L320.52,296.067L320.52,296.067z"/>
<path class="st1" d="M273.833,168.328c1.271-0.73,2.772-1.095,4.504-1.095h6.897v-12.82h-8.276c-4.382,0-8.276,0.892-11.684,2.678
	c-3.408,1.785-6.085,4.26-8.033,7.424c-0.956,1.554-1.675,3.231-2.162,5.026c-0.397-2.553-1.198-4.842-2.422-6.852
	c-1.813-2.974-4.247-5.26-7.302-6.856c-3.057-1.595-6.505-2.393-10.345-2.393c-3.732,0-7.29,0.825-10.67,2.474
	c-3.382,1.65-6.126,4.098-8.236,7.343c-1.502,2.31-2.458,5.054-2.891,8.214c-0.353-0.978-0.791-1.907-1.328-2.778
	c-1.569-2.542-3.787-4.53-6.653-5.964c-2.868-1.433-6.221-2.15-10.062-2.15h-7.87c-0.759,0-1.42-0.175-1.988-0.528
	c-0.568-0.351-1.002-0.798-1.299-1.339c-0.298-0.54-0.446-1.136-0.446-1.785c0-0.649,0.148-1.244,0.446-1.785
	c0.297-0.54,0.73-0.974,1.299-1.298c0.568-0.325,1.23-0.487,1.988-0.487h23.53v-13.712h-25.883c-3.355,0-6.41,0.73-9.169,2.191
	c-2.714,1.437-4.876,3.454-6.491,6.042v-8.233H95.856v13.712h8.844v29.373h-8.844v13.712h35.296v-13.712h-8.925v-29.373h15.172
	v25.316c0,3.408,0.811,6.451,2.434,9.128c1.623,2.678,3.84,4.787,6.654,6.329c2.812,1.542,6.031,2.312,9.655,2.312h7.303v-13.712
	h-5.437c-0.866,0-1.596-0.31-2.191-0.933c-0.596-0.621-0.892-1.365-0.892-2.231v-26.208h12.222
	c-0.248,1.256-0.377,2.579-0.377,3.976c0,3.625,0.852,6.722,2.556,9.291c1.704,2.57,3.989,4.531,6.857,5.883
	c2.866,1.353,6.057,2.028,9.574,2.028h7.302c0.919,0,1.69,0.19,2.312,0.568c0.621,0.379,1.108,0.88,1.461,1.501
	c0.351,0.622,0.527,1.312,0.527,2.069c0,0.703-0.176,1.366-0.527,1.988c-0.353,0.622-0.84,1.123-1.461,1.501
	c-0.622,0.379-1.393,0.568-2.312,0.568H168.96v13.712h27.02c3.354,0,6.411-0.73,9.169-2.191c2.759-1.461,4.962-3.597,6.613-6.41
	c1.003-1.711,1.697-3.635,2.09-5.767c0.532,1.761,1.289,3.376,2.291,4.834c2.137,3.112,5.044,5.477,8.723,7.1
	c3.678,1.623,7.871,2.434,12.577,2.434h13.631v-12.09h-15.011c-1.298,0-2.462-0.134-3.488-0.406c-1.028-0.27-1.84-0.716-2.434-1.339
	c-0.596-0.621-1.002-1.392-1.217-2.312h25.802c0.013-0.056,0.024-0.119,0.037-0.176c0.462,2.307,1.286,4.422,2.478,6.342
	c1.947,3.138,4.625,5.586,8.033,7.343c3.407,1.758,7.302,2.637,11.684,2.637h8.276v-12.577h-6.897c-1.732,0-3.233-0.365-4.504-1.095
	c-1.271-0.73-2.259-1.731-2.961-3.002c-0.703-1.27-1.055-2.69-1.055-4.26c0-1.568,0.351-2.974,1.055-4.22
	C271.574,170.046,272.561,169.058,273.833,168.328z M228.193,171.695c0.108-0.865,0.31-1.676,0.608-2.434
	c0.297-0.757,0.717-1.406,1.257-1.947c0.54-0.54,1.203-0.973,1.988-1.298c0.784-0.325,1.69-0.487,2.718-0.487
	c0.811,0,1.555,0.109,2.231,0.325c0.676,0.217,1.257,0.528,1.744,0.933s0.905,0.866,1.258,1.38c0.351,0.515,0.609,1.069,0.771,1.663
	c0.163,0.596,0.244,1.217,0.244,1.866L228.193,171.695L228.193,171.695z"/>
<linearGradient id="SVGID_1_" gradientUnits="userSpaceOnUse" x1="18.375" y1="212.5339" x2="375.1309" y2="212.5339">
	<stop  offset="0.0147" style="stop-color:#0084FF"/>
	<stop  offset="1" style="stop-color:#00CCFF"/>
</linearGradient>
<path class="st2" d="M375.131,344.494l-1.163,0.116L18.375,380.333l40.394-92.556l1.255,0.547l-39.458,90.413l352.102-35.372
	l-30.761-43.849l1.12-0.786L375.131,344.494z M164.01,44.735l-36.153,82.84l1.254,0.547l35.179-80.605l59.787,85.224l0.218,0.311
	l1.12-0.787L164.01,44.735z"/>
<linearGradient id="SVGID_00000070828429729960004980000011712153601881713564_" gradientUnits="userSpaceOnUse" x1="23.1152" y1="174.0918" x2="381.666" y2="174.0918">
	<stop  offset="0.0137" style="stop-color:#E29900"/>
	<stop  offset="0.9903" style="stop-color:#FFCC33"/>
</linearGradient>
<path style="fill:url(#SVGID_00000070828429729960004980000011712153601881713564_);" d="M381.666,333.73H23.115l25.827-45.996
	l1.194,0.668l-24.683,43.96h353.874l-24.683-43.96l1.194-0.668L381.666,333.73z M200.998,15.042l-0.331-0.589l-63.474,113.044
	l1.194,0.669l62.28-110.917l60.866,108.398l0.186,0.331l1.194-0.67L200.998,15.042z"/>
<linearGradient id="SVGID_00000171696147761314901230000011173115405612212906_" gradientUnits="userSpaceOnUse" x1="49.0654" y1="199.9043" x2="341.5215" y2="199.9043">
	<stop  offset="0" style="stop-color:#009900"/>
	<stop  offset="0.0723" style="stop-color:#11A000"/>
	<stop  offset="0.2356" style="stop-color:#30AC00"/>
	<stop  offset="0.4059" style="stop-color:#49B600"/>
	<stop  offset="0.5838" style="stop-color:#5ABD00"/>
	<stop  offset="0.7742" style="stop-color:#65C200"/>
	<stop  offset="0.999" style="stop-color:#68C300"/>
</linearGradient>
<path style="fill:url(#SVGID_00000171696147761314901230000011173115405612212906_);" d="M341.521,308.167l-0.363,0.109
	L49.065,396.335l0.253-1.141l23.866-107.315l1.336,0.298l-0.083,0.37L50.91,394.35l290.215-87.493L341.521,308.167z M139.033,4.319
	l-0.878-0.845l-27.529,123.792l-0.083,0.37l1.336,0.298L138.962,6.15l131.884,126.954l0.948-0.986L139.033,4.319z"/>
<path class="st1" d="M98.346,307.563c0,0.667-0.228,1.181-0.683,1.54c-0.455,0.359-1.107,0.539-1.955,0.539h-0.776v2.593h-0.766
	v-6.594h1.709C97.522,305.642,98.346,306.283,98.346,307.563z M94.932,308.984h0.69c0.68,0,1.171-0.11,1.475-0.329
	s0.456-0.571,0.456-1.055c0-0.436-0.143-0.761-0.429-0.974c-0.286-0.214-0.731-0.32-1.335-0.32h-0.857L94.932,308.984
	L94.932,308.984z M101.186,309.494v2.742h-0.766v-6.594h1.808c0.809,0,1.406,0.155,1.793,0.465c0.386,0.309,0.58,0.776,0.58,1.398
	c0,0.872-0.442,1.461-1.326,1.768l1.791,2.963h-0.907l-1.597-2.742L101.186,309.494L101.186,309.494z M101.186,308.835h1.051
	c0.541,0,0.938-0.107,1.191-0.322s0.379-0.537,0.379-0.967c0-0.436-0.129-0.75-0.386-0.943c-0.257-0.192-0.67-0.289-1.238-0.289
	h-0.997L101.186,308.835L101.186,308.835z M110.497,312.236h-3.675v-6.594h3.675v0.681h-2.909v2.124h2.733v0.677h-2.733v2.427h2.909
	V312.236z M116.372,310.482c0,0.58-0.211,1.032-0.632,1.357c-0.421,0.325-0.992,0.487-1.714,0.487c-0.782,0-1.383-0.101-1.804-0.302
	v-0.74c0.27,0.114,0.565,0.205,0.884,0.27c0.319,0.066,0.635,0.099,0.947,0.099c0.511,0,0.896-0.097,1.155-0.291
	c0.258-0.194,0.388-0.464,0.388-0.809c0-0.228-0.046-0.416-0.137-0.561c-0.092-0.146-0.245-0.28-0.46-0.404
	c-0.215-0.123-0.542-0.263-0.981-0.419c-0.613-0.22-1.052-0.479-1.315-0.781s-0.394-0.693-0.394-1.177
	c0-0.508,0.191-0.913,0.573-1.213c0.382-0.301,0.887-0.451,1.515-0.451c0.656,0,1.258,0.12,1.809,0.36l-0.239,0.668
	c-0.544-0.229-1.073-0.343-1.588-0.343c-0.406,0-0.723,0.087-0.951,0.261c-0.229,0.174-0.343,0.417-0.343,0.726
	c0,0.228,0.042,0.416,0.126,0.561c0.084,0.146,0.226,0.28,0.426,0.401c0.2,0.122,0.506,0.256,0.918,0.404
	c0.692,0.247,1.168,0.511,1.427,0.794C116.243,309.664,116.372,310.031,116.372,310.482z M122.089,312.236h-3.675v-6.594h3.675
	v0.681h-2.909v2.124h2.733v0.677h-2.733v2.427h2.909V312.236z M129.394,312.236h-0.875l-3.604-5.534h-0.036
	c0.048,0.649,0.072,1.245,0.072,1.786v3.748h-0.708v-6.594h0.866l3.594,5.511h0.036c-0.006-0.081-0.02-0.342-0.041-0.783
	c-0.021-0.44-0.029-0.756-0.023-0.945v-3.784h0.718L129.394,312.236L129.394,312.236z M133.929,312.236h-0.766v-5.913h-2.088v-0.681
	h4.943v0.681h-2.088L133.929,312.236L133.929,312.236z M141.378,312.236h-3.675v-6.594h3.675v0.681h-2.909v2.124h2.733v0.677h-2.733
	v2.427h2.909V312.236z M138.852,305.002c0.144-0.186,0.3-0.412,0.467-0.677s0.298-0.495,0.395-0.69h0.911v0.095
	c-0.132,0.195-0.33,0.436-0.591,0.722c-0.262,0.286-0.489,0.507-0.681,0.662h-0.5V305.002z M107.972,305.002
	c0.145-0.186,0.3-0.412,0.467-0.677c0.167-0.265,0.298-0.495,0.395-0.69h0.911v0.095c-0.132,0.195-0.33,0.436-0.591,0.722
	c-0.262,0.286-0.489,0.507-0.681,0.662h-0.5V305.002z M150.879,307.563c0,0.667-0.228,1.181-0.683,1.54
	c-0.455,0.359-1.107,0.539-1.955,0.539h-0.776v2.593h-0.766v-6.594h1.709C150.055,305.642,150.879,306.283,150.879,307.563z
	 M147.464,308.984h0.69c0.68,0,1.171-0.11,1.475-0.329c0.304-0.219,0.456-0.571,0.456-1.055c0-0.436-0.143-0.761-0.429-0.974
	c-0.286-0.214-0.731-0.32-1.335-0.32h-0.857V308.984z M157.096,312.236l-0.821-2.097h-2.643l-0.812,2.097h-0.776l2.607-6.62h0.645
	l2.593,6.62H157.096z M156.037,309.448l-0.767-2.043c-0.099-0.258-0.201-0.576-0.307-0.951c-0.066,0.289-0.161,0.606-0.284,0.951
	l-0.776,2.043H156.037z M160.256,309.494v2.742h-0.766v-6.594h1.808c0.809,0,1.406,0.155,1.793,0.465
	c0.386,0.309,0.58,0.776,0.58,1.398c0,0.872-0.442,1.461-1.326,1.768l1.791,2.963h-0.907l-1.597-2.742L160.256,309.494
	L160.256,309.494z M160.256,308.835h1.051c0.541,0,0.938-0.107,1.191-0.322c0.252-0.215,0.379-0.537,0.379-0.967
	c0-0.436-0.129-0.75-0.386-0.943c-0.257-0.192-0.67-0.289-1.238-0.289h-0.997L160.256,308.835L160.256,308.835z M174.248,308.876
	c0,1.088-0.295,1.92-0.886,2.496c-0.591,0.576-1.441,0.864-2.551,0.864h-1.826v-6.594h2.021c1.026,0,1.822,0.284,2.39,0.852
	C173.964,307.062,174.248,307.856,174.248,308.876z M173.436,308.902c0-0.86-0.215-1.508-0.647-1.943
	c-0.432-0.436-1.073-0.654-1.923-0.654h-1.114v5.268h0.933c0.914,0,1.601-0.225,2.061-0.674
	C173.207,310.449,173.436,309.784,173.436,308.902z M180.086,312.236h-3.675v-6.594h3.675v0.681h-2.909v2.124h2.733v0.677h-2.733
	v2.427h2.909V312.236z M186.006,305.642h0.825l-2.376,6.594h-0.758l-2.363-6.594h0.812l1.515,4.267
	c0.174,0.49,0.313,0.967,0.415,1.43c0.108-0.487,0.249-0.972,0.424-1.457L186.006,305.642z M194.154,308.93
	c0,1.055-0.267,1.885-0.801,2.49c-0.534,0.604-1.276,0.907-2.226,0.907c-0.971,0-1.72-0.297-2.248-0.891
	c-0.528-0.594-0.791-1.432-0.791-2.514c0-1.073,0.265-1.905,0.794-2.496c0.529-0.591,1.28-0.886,2.255-0.886
	c0.947,0,1.687,0.3,2.219,0.902C193.888,307.042,194.154,307.871,194.154,308.93z M188.9,308.93c0,0.893,0.19,1.57,0.571,2.032
	c0.38,0.461,0.933,0.692,1.658,0.692c0.731,0,1.282-0.23,1.655-0.69c0.373-0.46,0.559-1.138,0.559-2.034
	c0-0.886-0.186-1.56-0.557-2.019c-0.371-0.458-0.921-0.687-1.649-0.687c-0.731,0-1.286,0.231-1.667,0.692
	C189.091,307.378,188.9,308.049,188.9,308.93z M196.317,312.236v-6.594h0.766v5.899h2.909v0.695H196.317z M206.784,305.642v4.267
	c0,0.752-0.227,1.342-0.681,1.773c-0.454,0.43-1.078,0.645-1.872,0.645c-0.794,0-1.408-0.216-1.842-0.649
	c-0.435-0.433-0.652-1.028-0.652-1.786v-4.248h0.766v4.303c0,0.55,0.15,0.972,0.451,1.267c0.301,0.295,0.742,0.442,1.326,0.442
	c0.557,0,0.985-0.148,1.286-0.444c0.3-0.296,0.451-0.721,0.451-1.274v-4.294H206.784z M211.251,312.236h-0.766v-5.913h-2.088v-0.681
	h4.943v0.681h-2.088L211.251,312.236L211.251,312.236z M215.025,312.236v-6.594h0.766v6.594H215.025z M224.016,308.93
	c0,1.055-0.267,1.885-0.801,2.49c-0.534,0.604-1.276,0.907-2.226,0.907c-0.971,0-1.72-0.297-2.248-0.891
	c-0.528-0.594-0.791-1.432-0.791-2.514c0-1.073,0.265-1.905,0.794-2.496c0.529-0.591,1.28-0.886,2.255-0.886
	c0.947,0,1.687,0.3,2.219,0.902C223.75,307.042,224.016,307.871,224.016,308.93z M218.761,308.93c0,0.893,0.19,1.57,0.571,2.032
	c0.38,0.461,0.933,0.692,1.658,0.692c0.731,0,1.282-0.23,1.655-0.69c0.373-0.46,0.559-1.138,0.559-2.034
	c0-0.886-0.186-1.56-0.557-2.019c-0.371-0.458-0.921-0.687-1.649-0.687c-0.731,0-1.286,0.231-1.667,0.692
	C218.952,307.378,218.761,308.049,218.761,308.93z M231.329,312.236h-0.875l-3.604-5.534h-0.036
	c0.048,0.649,0.072,1.245,0.072,1.786v3.748h-0.708v-6.594h0.866l3.594,5.511h0.036c-0.006-0.081-0.02-0.342-0.041-0.783
	c-0.021-0.44-0.029-0.756-0.023-0.945v-3.784h0.718L231.329,312.236L231.329,312.236z M237.556,310.482
	c0,0.58-0.211,1.032-0.632,1.357c-0.421,0.325-0.992,0.487-1.714,0.487c-0.782,0-1.383-0.101-1.804-0.302v-0.74
	c0.27,0.114,0.565,0.205,0.884,0.27c0.319,0.066,0.635,0.099,0.947,0.099c0.511,0,0.896-0.097,1.154-0.291
	c0.258-0.194,0.388-0.464,0.388-0.809c0-0.228-0.046-0.416-0.137-0.561c-0.092-0.146-0.245-0.28-0.46-0.404
	c-0.215-0.123-0.542-0.263-0.981-0.419c-0.613-0.22-1.051-0.479-1.315-0.781c-0.263-0.301-0.394-0.693-0.394-1.177
	c0-0.508,0.191-0.913,0.573-1.213c0.382-0.301,0.887-0.451,1.515-0.451c0.656,0,1.258,0.12,1.809,0.36l-0.239,0.668
	c-0.544-0.229-1.073-0.343-1.588-0.343c-0.406,0-0.723,0.087-0.951,0.261c-0.229,0.174-0.343,0.417-0.343,0.726
	c0,0.228,0.042,0.416,0.126,0.561c0.084,0.146,0.226,0.28,0.426,0.401c0.2,0.122,0.506,0.256,0.918,0.404
	c0.692,0.247,1.168,0.511,1.427,0.794C237.425,309.664,237.556,310.031,237.556,310.482z"/>
</svg>
